<svg width="46" height="43" viewBox="0 0 46 43" fill="none" xmlns="http://www.w3.org/2000/svg">
<path d="M9.85714 21.5V13.4222C9.88281 11.8343 10.2434 10.2669 10.9182 8.80952C11.5931 7.35218 12.5689 6.03363 13.7898 4.92944C15.0107 3.82524 16.4527 2.9571 18.0332 2.37475C19.6136 1.7924 21.3015 1.50729 23 1.53575V1.53575C24.6985 1.50729 26.3864 1.7924 27.9668 2.37475C29.5473 2.9571 30.9893 3.82524 32.2102 4.92944C33.4311 6.03363 34.4069 7.35218 35.0818 8.80952C35.7566 10.2669 36.1172 11.8343 36.1429 13.4222V21.5" stroke="#000001" stroke-linecap="round" stroke-linejoin="round"/>
<path d="M4.92857 16.8929H8.21429C8.65 16.8929 9.06787 17.0547 9.37596 17.3427C9.68406 17.6307 9.85714 18.0214 9.85714 18.4287V27.6429C9.85714 28.0502 9.68406 28.4409 9.37596 28.7289C9.06787 29.0169 8.65 29.1787 8.21429 29.1787H4.92857C4.05715 29.1787 3.22141 28.8551 2.60522 28.2791C1.98903 27.7031 1.64286 26.9218 1.64286 26.1072V19.9644C1.64286 19.1498 1.98903 18.3686 2.60522 17.7925C3.22141 17.2165 4.05715 16.8929 4.92857 16.8929V16.8929Z" stroke="#000001" stroke-linecap="round" stroke-linejoin="round"/>
<path d="M41.0714 29.1786H37.7857C37.35 29.1786 36.9321 29.0168 36.624 28.7288C36.3159 28.4408 36.1429 28.0502 36.1429 27.6429V18.4286C36.1429 18.0213 36.3159 17.6307 36.624 17.3427C36.9321 17.0547 37.35 16.8929 37.7857 16.8929H41.0714C41.9429 16.8929 42.7786 17.2165 43.3948 17.7925C44.011 18.3685 44.3571 19.1497 44.3571 19.9643V26.1072C44.3571 26.9218 44.011 27.703 43.3948 28.279C42.7786 28.855 41.9429 29.1786 41.0714 29.1786V29.1786Z" stroke="#000001" stroke-linecap="round" stroke-linejoin="round"/>
<path d="M29.5714 37.625C31.3143 37.625 32.9857 36.9778 34.2181 35.8258C35.4505 34.6738 36.1429 33.1113 36.1429 31.4821V24.5714" stroke="#000001" stroke-linecap="round" stroke-linejoin="round"/>
<path d="M29.5714 37.6251C29.5714 38.6433 29.1387 39.6198 28.3685 40.3398C27.5982 41.0598 26.5536 41.4643 25.4643 41.4643H20.5357C19.4464 41.4643 18.4018 41.0598 17.6315 40.3398C16.8613 39.6198 16.4286 38.6433 16.4286 37.6251C16.4286 36.6068 16.8613 35.6303 17.6315 34.9103C18.4018 34.1903 19.4464 33.7858 20.5357 33.7858H25.4643C26.5536 33.7858 27.5982 34.1903 28.3685 34.9103C29.1387 35.6303 29.5714 36.6068 29.5714 37.6251Z" stroke="#000001" stroke-linecap="round" stroke-linejoin="round"/>
</svg>
