<svg width="14" height="14" viewBox="0 0 14 14" fill="none" xmlns="http://www.w3.org/2000/svg">
<g clip-path="url(#clip0_1552_21560)">
<path d="M8.50003 11.2697C8.01765 11.4156 7.51567 11.5001 7.00003 11.5001C4.21003 11.5001 1.82003 9.02509 0.770028 7.75382C0.604189 7.5471 0.51239 7.27853 0.51239 7.00006C0.51239 6.72159 0.604189 6.45302 0.770028 6.2463C1.1027 5.84352 1.56988 5.31991 2.14168 4.79247M3.6292 3.6244C4.62195 2.9793 5.77226 2.5 7.00003 2.5C9.79003 2.5 12.18 4.97503 13.23 6.2463C13.3958 6.45302 13.4876 6.72159 13.4876 7.00006C13.4876 7.27853 13.3958 7.5471 13.23 7.75382C12.6512 8.45457 11.6653 9.52108 10.4296 10.3372L3.6292 3.6244Z" stroke="black" stroke-linecap="round" stroke-linejoin="round"/>
<path d="M8.41424 8.41421C9.19529 7.63316 9.19529 6.36683 8.41424 5.58578C7.63319 4.80474 6.36687 4.80474 5.58582 5.58578" stroke="black" stroke-linecap="round" stroke-linejoin="round"/>
<path d="M13.5 13.5L0.5 0.5" stroke="black" stroke-linecap="round" stroke-linejoin="round"/>
</g>
<defs>
<clipPath id="clip0_1552_21560">
<rect width="14" height="14" fill="white"/>
</clipPath>
</defs>
</svg>
