<svg width="14" height="14" viewBox="0 0 14 14" fill="none" xmlns="http://www.w3.org/2000/svg">
<path d="M13.23 6.2463C13.3958 6.45302 13.4876 6.72159 13.4876 7.00006C13.4876 7.27853 13.3958 7.5471 13.23 7.75382C12.18 9.02509 9.79003 11.5001 7.00003 11.5001C4.21003 11.5001 1.82003 9.02509 0.770028 7.75382C0.604189 7.5471 0.51239 7.27853 0.51239 7.00006C0.51239 6.72159 0.604189 6.45302 0.770028 6.2463C1.82003 4.97503 4.21003 2.5 7.00003 2.5C9.79003 2.5 12.18 4.97503 13.23 6.2463Z" stroke="black" stroke-linecap="round" stroke-linejoin="round"/>
<path d="M7 9C8.10457 9 9 8.10457 9 7C9 5.89543 8.10457 5 7 5C5.89543 5 5 5.89543 5 7C5 8.10457 5.89543 9 7 9Z" stroke="black" stroke-linecap="round" stroke-linejoin="round"/>
</svg>
