<svg width="14" height="14" viewBox="0 0 14 14" fill="none" xmlns="http://www.w3.org/2000/svg">
<g clip-path="url(#clip0_1552_23864)">
<path d="M7 13.5C10.5899 13.5 13.5 10.5899 13.5 7C13.5 3.41015 10.5899 0.5 7 0.5C3.41015 0.5 0.5 3.41015 0.5 7C0.5 10.5899 3.41015 13.5 7 13.5Z" stroke="black" stroke-linecap="round" stroke-linejoin="round"/>
<path d="M5.5 10H8.5" stroke="black" stroke-linecap="round" stroke-linejoin="round"/>
<path d="M7 4.5C7.27614 4.5 7.5 4.27614 7.5 4C7.5 3.72386 7.27614 3.5 7 3.5C6.72386 3.5 6.5 3.72386 6.5 4C6.5 4.27614 6.72386 4.5 7 4.5Z" stroke="black" stroke-linecap="round" stroke-linejoin="round"/>
<path d="M7 10V6.5H6" stroke="black" stroke-linecap="round" stroke-linejoin="round"/>
</g>
<defs>
<clipPath id="clip0_1552_23864">
<rect width="14" height="14" fill="white"/>
</clipPath>
</defs>
</svg>
