<svg width="124" height="20" fill="none" xmlns="http://www.w3.org/2000/svg"><path d="M10.72 2.497a.833.833 0 0 0-1.44 0L7.017 6.395c-.16.273-.433.46-.746.507l-4.239.64a.833.833 0 0 0-.407 1.466l3.158 2.616c.292.242.43.624.359.997l-.826 4.337a.833.833 0 0 0 1.207.894l3.99-2.102c.304-.16.668-.16.971 0l3.992 2.102a.833.833 0 0 0 1.206-.894l-.826-4.337a1.042 1.042 0 0 1 .36-.997l3.157-2.616a.833.833 0 0 0-.407-1.466l-4.24-.64a1.041 1.041 0 0 1-.745-.507l-2.261-3.898zM36.72 2.497a.833.833 0 0 0-1.44 0l-2.263 3.898c-.158.273-.432.46-.745.507l-4.238.64a.833.833 0 0 0-.408 1.466l3.158 2.616c.292.242.43.624.359.997l-.826 4.337a.833.833 0 0 0 1.206.894l3.992-2.102c.303-.16.666-.16.97 0l3.992 2.102a.833.833 0 0 0 1.206-.894l-.826-4.337a1.042 1.042 0 0 1 .36-.997l3.157-2.616a.833.833 0 0 0-.407-1.466l-4.24-.64a1.041 1.041 0 0 1-.744-.507L36.72 2.497zM62.72 2.497a.833.833 0 0 0-1.44 0l-2.263 3.898c-.158.273-.432.46-.745.507l-4.239.64a.833.833 0 0 0-.407 1.466l3.158 2.616c.292.242.43.624.359.997l-.826 4.337a.833.833 0 0 0 1.206.894l3.992-2.102c.303-.16.666-.16.97 0l3.992 2.102a.833.833 0 0 0 1.206-.894l-.826-4.337a1.042 1.042 0 0 1 .36-.997l3.157-2.616a.833.833 0 0 0-.407-1.466l-4.24-.64a1.041 1.041 0 0 1-.745-.507l-2.261-3.898zM88.72 2.497a.833.833 0 0 0-1.44 0l-2.263 3.898c-.158.273-.432.46-.745.507l-4.239.64a.833.833 0 0 0-.407 1.466l3.158 2.616c.292.242.43.624.359.997l-.826 4.337a.833.833 0 0 0 1.207.894l3.99-2.102c.304-.16.668-.16.971 0l3.992 2.102a.833.833 0 0 0 1.206-.894l-.826-4.337a1.042 1.042 0 0 1 .36-.997l3.157-2.616a.833.833 0 0 0-.407-1.466l-4.24-.64a1.041 1.041 0 0 1-.745-.507l-2.261-3.898zM114.721 2.497a.834.834 0 0 0-1.442 0l-2.262 3.898c-.158.273-.432.46-.745.507l-4.238.64a.834.834 0 0 0-.408 1.466l3.158 2.616c.292.242.43.624.359.997l-.826 4.337a.833.833 0 0 0 1.206.894l3.992-2.102c.303-.16.667-.16.97 0l3.991 2.102a.833.833 0 0 0 1.207-.894l-.826-4.337a1.042 1.042 0 0 1 .359-.997l3.158-2.616a.834.834 0 0 0-.408-1.466l-4.238-.64a1.043 1.043 0 0 1-.746-.507l-2.261-3.898z" fill="#299764"/></svg>